<svg width="17" height="15" viewBox="0 0 17 15" fill="none" xmlns="http://www.w3.org/2000/svg">
<path d="M7.66647 0.332818L11.8215 4.48782C12.099 4.76532 12.2565 5.14782 12.2565 5.54532V13.0378C12.2565 13.8628 11.5815 14.5378 10.7565 14.5378H4.00647C3.40647 14.5378 2.86647 14.1778 2.62647 13.6303L0.181471 7.92282C-0.448529 6.43782 0.638971 4.78782 2.25147 4.78782H6.48897L5.77647 1.35282C5.70147 0.977819 5.81397 0.595318 6.08397 0.325318C6.52647 -0.109681 7.23147 -0.109681 7.66647 0.332818ZM15.2565 14.5378C14.4315 14.5378 13.7565 13.8628 13.7565 13.0378V7.03782C13.7565 6.21282 14.4315 5.53782 15.2565 5.53782C16.0815 5.53782 16.7565 6.21282 16.7565 7.03782V13.0378C16.7565 13.8628 16.0815 14.5378 15.2565 14.5378Z" fill="#696D71"/>
</svg>
