<svg width="21" height="21" viewBox="0 0 21 21" fill="none" xmlns="http://www.w3.org/2000/svg">
<path d="M10.4581 0C4.9453 0 0.429149 4.25069 0 9.65266L5.62473 11.9782C6.10132 11.6523 6.67708 11.4613 7.29649 11.4613C7.352 11.4613 7.40727 11.4632 7.46207 11.4663L9.96343 7.84069C9.96343 7.82337 9.96319 7.80653 9.96319 7.78945C9.96319 5.60717 11.7384 3.83174 13.9209 3.83174C16.1032 3.83174 17.8784 5.60717 17.8784 7.78945C17.8784 9.97173 16.1032 11.7474 13.9209 11.7474C13.8908 11.7474 13.8609 11.7467 13.831 11.746L10.2635 14.2915C10.2654 14.3377 10.2671 14.3849 10.2671 14.4319C10.2671 16.0702 8.93456 17.4025 7.29649 17.4025C5.85863 17.4025 4.65635 16.3762 4.38401 15.0171L0.361539 13.3542C1.607 17.759 5.6539 20.9885 10.4581 20.9885C16.2541 20.9885 20.9524 16.2899 20.9524 10.4946C20.9524 4.69834 16.2538 0 10.4581 0Z" fill="#F3F3F3"/>
<path d="M6.57616 15.9237L5.28705 15.3911C5.5155 15.8668 5.91073 16.2651 6.43548 16.4838C7.56991 16.9564 8.87776 16.4181 9.35056 15.2827C9.57949 14.7337 9.58091 14.1276 9.35388 13.5772C9.12733 13.0266 8.69984 12.5973 8.15018 12.3681C7.60479 12.1411 7.02049 12.1494 6.50712 12.3432L7.83869 12.8938C8.67541 13.2425 9.07111 14.2033 8.72238 15.04C8.37436 15.877 7.41287 16.2727 6.57616 15.9237Z" fill="#F3F3F3"/>
<path d="M16.5578 7.78939C16.5578 6.33541 15.375 5.15234 13.9207 5.15234C12.4668 5.15234 11.2837 6.33541 11.2837 7.78939C11.2837 9.24361 12.4668 10.4262 13.9207 10.4262C15.375 10.426 16.5578 9.24338 16.5578 7.78939ZM11.9441 7.78489C11.9441 6.69078 12.8311 5.80401 13.9252 5.80401C15.0194 5.80401 15.9064 6.69078 15.9064 7.78489C15.9064 8.87899 15.0194 9.76576 13.9252 9.76576C12.8311 9.76576 11.9441 8.87875 11.9441 7.78489Z" fill="#F3F3F3"/>
</svg>
