<svg width="19" height="13" viewBox="0 0 19 13" fill="none" xmlns="http://www.w3.org/2000/svg">
<path fillRule="evenodd" clipRule="evenodd" d="M17.4091 0.362549C17.861 0.362549 18.2273 0.712939 18.2273 1.14516C18.2273 3.48719 17.1887 5.02649 15.8417 5.95425C14.5364 6.85321 12.9946 7.14517 11.9546 7.14517H3.02074L7.07853 11.0266C7.39806 11.3322 7.39806 11.8277 7.07853 12.1333C6.75905 12.439 6.241 12.439 5.92148 12.1333L0.466932 6.91592C0.147416 6.61028 0.147416 6.11484 0.466932 5.8092L5.92148 0.59177C6.241 0.286145 6.75905 0.286145 7.07853 0.59177C7.39806 0.897395 7.39806 1.39292 7.07853 1.69855L3.02074 5.57995H11.9546C12.7327 5.57995 13.9182 5.35018 14.8856 4.68391C15.8113 4.04645 16.5909 2.97705 16.5909 1.14516C16.5909 0.712939 16.9573 0.362549 17.4091 0.362549Z" fill="#696D71"/>
</svg>
