<svg width="23" height="21" viewBox="0 0 23 21" fill="none" xmlns="http://www.w3.org/2000/svg">
<path fill-rule="evenodd" clip-rule="evenodd" d="M23 19H14V16.2941C14 15.0366 13.5908 13.2419 12.3496 11.7208C12.2292 11.5734 12.1025 11.4302 11.969 11.2915C12.8345 10.0503 14.3816 9 17 9C21.8 9 23 12.5294 23 14.2941V19ZM17 8C19.2092 8 21 6.20911 21 4C21 1.79089 19.2092 0 17 0C14.7908 0 13 1.79089 13 4C13 6.20911 14.7908 8 17 8ZM10 6C10 8.20911 8.20923 10 6 10C3.79077 10 2 8.20911 2 6C2 3.79089 3.79077 2 6 2C8.20923 2 10 3.79089 10 6ZM12 16.2941V21H0V16.2941C0 14.5294 1.19995 11 6 11C10.8 11 12 14.5294 12 16.2941Z" fill="white"/>
</svg>
